# xmcd CD database file
#
# Track frame offsets:
#	150
#	15676
#	35489
#	55534
#	78005
#	106914
#	125105
#	145673
#	162286
#	184535
#	206520
#	227970
#	250196
#	270568
#	286742
#
# Disc length: 4062 seconds
#
# Revision: 4
# Processed by: cddbd v1.5PL3 Copyright (c) Steve Scherf et al.
# Submitted via: CDex 1.50
#
DISCID=c20fdc0f
DTITLE=tohko - BEST ALBUM 10+5
DYEAR=1900
DGENRE=JPop
TTITLE0=BAD LUCK ON LOVE
TTITLE1=take a breath
TTITLE2=LOOPな気持ち
TTITLE3=ふわふわ　ふるる
TTITLE4=It's all about us
TTITLE5=ANGEL
TTITLE6=tohhikoh
TTITLE7=WHO...
TTITLE8=HEARTS
TTITLE9=TRUE DAYS
TTITLE10=at ease...!?
TTITLE11=FOR A LONG TIME
TTITLE12=PUZZLE
TTITLE13=いちょう並木の下で(アコースティックバージョン)
TTITLE14=REMINDER
EXTD=
EXTT0=BLUES ON LIFE-
EXTT1=
EXTT2=
EXTT3=
EXTT4=from the motion picture "BEAT"-
EXTT5=
EXTT6=
EXTT7=
EXTT8=
EXTT9=
EXTT10=
EXTT11=
EXTT12=by the irony of fate...
EXTT13=(Acoustic Version)
EXTT14=(BONUS TRACK)
PLAYORDER=
